<svg width="25" height="25" viewBox="0 0 25 25" fill="none" xmlns="http://www.w3.org/2000/svg">
<path d="M13.9818 0.288215C14.1762 0.131073 14.4036 0.034307 14.6413 0.00757896C14.8791 -0.0191491 15.1189 0.025096 15.3368 0.135896C15.5548 0.246697 15.7432 0.420175 15.8832 0.63901C16.0233 0.857846 16.1101 1.11438 16.135 1.383L16.1424 1.54301V23.4556C16.1425 23.7257 16.0799 23.9911 15.9608 24.2252C15.8418 24.4594 15.6705 24.6542 15.464 24.7902C15.2575 24.9261 15.0231 24.9985 14.7841 25C14.5452 25.0015 14.3101 24.9321 14.1023 24.7988L13.9831 24.7118L5.81127 18.1136H2.48345C1.8569 18.1138 1.25344 17.8463 0.794023 17.3648C0.334608 16.8832 0.0531996 16.2232 0.00620877 15.517L0 15.3064V9.69214C0.000114954 8.98418 0.236886 8.3024 0.662879 7.7834C1.08887 7.26441 1.67262 6.94652 2.29719 6.89342L2.48345 6.885H5.81127L13.9818 0.288215ZM19.3535 8.52998L21.1093 10.5146L22.8651 8.52998C22.9797 8.39593 23.1167 8.289 23.2682 8.21544C23.4197 8.14188 23.5826 8.10316 23.7475 8.10154C23.9124 8.09992 24.0759 8.13544 24.2285 8.20601C24.3811 8.27658 24.5197 8.3808 24.6363 8.51259C24.7529 8.64437 24.8451 8.80108 24.9075 8.97358C24.97 9.14607 25.0014 9.33089 25 9.51726C24.9985 9.70362 24.9643 9.8878 24.8992 10.059C24.8341 10.2303 24.7395 10.3852 24.6209 10.5146L22.8651 12.4993L24.6209 14.4839C24.8539 14.7471 24.9849 15.1041 24.985 15.4765C24.9851 15.8488 24.8544 16.2059 24.6215 16.4693C24.3887 16.7327 24.0728 16.8807 23.7435 16.8808C23.4141 16.8809 23.0981 16.7332 22.8651 16.47L21.1093 14.4839L19.3535 16.47C19.1205 16.7332 18.8046 16.8809 18.4752 16.8808C18.1458 16.8807 17.8299 16.7327 17.5971 16.4693C17.3643 16.2059 17.2335 15.8488 17.2336 15.4765C17.2338 15.1041 17.3647 14.7471 17.5977 14.4839L19.3535 12.4993L17.5977 10.5146C17.4791 10.3852 17.3845 10.2303 17.3194 10.059C17.2544 9.8878 17.2201 9.70362 17.2187 9.51726C17.2173 9.33089 17.2487 9.14607 17.3111 8.97358C17.3735 8.80108 17.4657 8.64437 17.5823 8.51259C17.6989 8.3808 17.8376 8.27658 17.9902 8.20601C18.1428 8.13544 18.3063 8.09992 18.4712 8.10154C18.636 8.10316 18.799 8.14188 18.9505 8.21544C19.102 8.289 19.239 8.39593 19.3535 8.52998Z" fill="white"/>
</svg>
