<svg width="25" height="25" viewBox="0 0 25 25" fill="none" xmlns="http://www.w3.org/2000/svg">
<path d="M6.25 0C6.80253 0 7.33244 0.146329 7.72314 0.406796C8.11384 0.667263 8.33333 1.02053 8.33333 1.38889V23.6111C8.33333 23.9795 8.11384 24.3327 7.72314 24.5932C7.33244 24.8537 6.80253 25 6.25 25H2.08333C1.5308 25 1.0009 24.8537 0.610195 24.5932C0.219494 24.3327 0 23.9795 0 23.6111V1.38889C0 1.02053 0.219494 0.667263 0.610195 0.406796C1.0009 0.146329 1.5308 0 2.08333 0H6.25ZM22.9167 0C23.4692 0 23.9991 0.146329 24.3898 0.406796C24.7805 0.667263 25 1.02053 25 1.38889V23.6111C25 23.9795 24.7805 24.3327 24.3898 24.5932C23.9991 24.8537 23.4692 25 22.9167 25H18.75C18.1975 25 17.6676 24.8537 17.2769 24.5932C16.8862 24.3327 16.6667 23.9795 16.6667 23.6111V1.38889C16.6667 1.02053 16.8862 0.667263 17.2769 0.406796C17.6676 0.146329 18.1975 0 18.75 0H22.9167Z" fill="white"/>
</svg>
