<svg width="25" height="25" viewBox="0 0 25 25" fill="none" xmlns="http://www.w3.org/2000/svg">
<path fill-rule="evenodd" clip-rule="evenodd" d="M0.636293 1.8991C0.679687 1.56648 0.807594 1.24767 1.00985 0.968018C1.2121 0.688369 1.48312 0.455592 1.80136 0.288192C2.1196 0.120792 2.47628 0.0233852 2.84306 0.00371597C3.20984 -0.0159532 3.57659 0.0426572 3.91417 0.174888C5.62059 0.839962 9.44477 2.42061 14.2973 4.97397C19.1514 7.5288 22.5659 9.75987 24.049 10.7721C25.3151 11.6379 25.3183 13.3548 24.0506 14.2235C22.582 15.2299 19.2093 17.4317 14.2973 20.0187C9.3805 22.6058 5.6013 24.1674 3.91095 24.8237C2.45519 25.3906 0.825896 24.5307 0.636293 23.0995C0.414555 21.4265 0 17.628 0 12.4978C0 7.37058 0.412948 3.57351 0.636293 1.8991Z" fill="white"/>
</svg>
