<svg width="25" height="25" viewBox="0 0 25 25" fill="none" xmlns="http://www.w3.org/2000/svg">
<path d="M14.075 0.288215C14.2706 0.131073 14.4996 0.034307 14.7389 0.00757896C14.9783 -0.0191491 15.2197 0.025096 15.4391 0.135896C15.6584 0.246697 15.8481 0.420175 15.9891 0.63901C16.13 0.857846 16.2174 1.11438 16.2425 1.383L16.25 1.54301V23.4556C16.2501 23.7257 16.1871 23.9911 16.0672 24.2252C15.9474 24.4594 15.7749 24.6542 15.5671 24.7902C15.3592 24.9261 15.1232 24.9985 14.8827 25C14.6421 25.0015 14.4054 24.9321 14.1963 24.7988L14.0762 24.7118L5.85 18.1136H2.5C1.86928 18.1138 1.26179 17.8463 0.799315 17.3648C0.336838 16.8832 0.0535543 16.2232 0.00625027 15.517L1.25335e-07 15.3064V9.69214C-0.000199474 8.98393 0.238008 8.30181 0.666871 7.78252C1.09573 7.26322 1.68356 6.94513 2.3125 6.89202L2.5 6.885H5.85L14.075 0.288215ZM22.0837 5.17685C23.0012 6.09838 23.7352 7.2269 24.2377 8.48868C24.7402 9.75046 25 11.1171 25 12.4993C25 13.8815 24.7402 15.2481 24.2377 16.5099C23.7352 17.7717 23.0012 18.9002 22.0837 19.8217C21.9618 19.9467 21.8189 20.0432 21.6635 20.1059C21.5081 20.1685 21.3431 20.1959 21.1782 20.1865C21.0133 20.1771 20.8517 20.1312 20.7027 20.0513C20.5536 19.9714 20.4202 19.8591 20.3101 19.721C20.1999 19.5828 20.1152 19.4215 20.0609 19.2464C20.0066 19.0714 19.9837 18.8859 19.9936 18.7008C20.0035 18.5157 20.0459 18.3347 20.1184 18.1681C20.191 18.0016 20.2922 17.8528 20.4163 17.7304C21.0718 17.0721 21.5962 16.266 21.9553 15.3645C22.3144 14.4631 22.5 13.4868 22.5 12.4993C22.5 10.422 21.6975 8.55525 20.4163 7.26817C20.2922 7.14578 20.191 6.99701 20.1184 6.83045C20.0459 6.66388 20.0035 6.48283 19.9936 6.29775C19.9837 6.11266 20.0066 5.92722 20.0609 5.75212C20.1152 5.57703 20.1999 5.41575 20.3101 5.27761C20.4202 5.13947 20.5536 5.0272 20.7027 4.94729C20.8517 4.86739 21.0133 4.82142 21.1782 4.81205C21.3431 4.80268 21.5081 4.8301 21.6635 4.89271C21.8189 4.95533 21.9618 5.0519 22.0837 5.17685ZM19.5837 8.31524C20.1078 8.84166 20.5271 9.48628 20.8142 10.207C21.1013 10.9277 21.2498 11.7083 21.25 12.4979C21.2502 13.2879 21.1018 14.069 20.8147 14.7903C20.5276 15.5115 20.1081 16.1566 19.5837 16.6833C19.3467 16.9197 19.0385 17.0461 18.7216 17.037C18.4046 17.0279 18.1026 16.8838 17.8767 16.6341C17.6508 16.3843 17.5178 16.0475 17.5048 15.6918C17.4917 15.3361 17.5994 14.9882 17.8063 14.7183L17.9163 14.592C18.4288 14.0755 18.75 13.3302 18.75 12.4993C18.7502 11.7808 18.505 11.0896 18.065 10.568L17.9163 10.4066C17.7922 10.2842 17.691 10.1354 17.6184 9.96883C17.5459 9.80227 17.5035 9.62121 17.4936 9.43613C17.4837 9.25105 17.5066 9.0656 17.5609 8.89051C17.6152 8.71541 17.6999 8.55413 17.8101 8.41599C17.9202 8.27785 18.0536 8.16559 18.2027 8.08568C18.3517 8.00577 18.5133 7.95981 18.6782 7.95044C18.8431 7.94107 19.0081 7.96848 19.1635 8.0311C19.3189 8.09371 19.4618 8.19029 19.5837 8.31524Z" fill="white"/>
</svg>
